<svg xmlns="http://www.w3.org/2000/svg" xmlns:xlink="http://www.w3.org/1999/xlink" viewBox="0 0 262.7 59.9"><defs><style>.cls-1{fill:none;}.cls-2{clip-path:url(#clip-path);}.cls-3{fill:#fff;}</style><clipPath id="clip-path" transform="translate(0 -0.1)"><rect class="cls-1" width="262.7" height="60"/></clipPath></defs><title>cloud-fm-logo</title><g id="Layer_2" data-name="Layer 2"><g id="Layer_1-2" data-name="Layer 1"><g class="cls-2"><path class="cls-3" d="M87.6,48.5C77.5,48.5,70,40.6,70,30.6a17.59,17.59,0,0,1,17.9-18A18,18,0,0,1,101.5,18l-3.9,4.5c-2.8-2.6-5.7-4.3-9.7-4.3-6.6,0-11.4,5.4-11.4,12.3s4.8,12.4,11.4,12.4c4.3,0,7-1.7,10-4.5l3.9,4c-3.7,3.8-7.7,6.1-14.2,6.1" transform="translate(0 -0.1)"/></g><rect class="cls-3" x="105.4" y="11.7" width="6" height="36.2"/><g class="cls-2"><path class="cls-3" d="M129.2,26.5c-4.8,0-7.9,3.8-7.9,8.4s3.3,8.5,8,8.5c4.9,0,7.9-3.8,7.9-8.4s-3.3-8.5-8-8.5m0,22a13.65,13.65,0,1,1,14-13.7,13.56,13.56,0,0,1-14,13.7" transform="translate(0 -0.1)"/></g><g class="cls-2"><path class="cls-3" d="M163.8,21.8h6V47.9h-6V43.8a9.38,9.38,0,0,1-8.2,4.6c-5.9,0-9.3-4-9.3-10.1V21.8h6V36.7c0,4.1,2,6.4,5.6,6.4s5.9-2.4,5.9-6.5Z" transform="translate(0 -0.1)"/></g><g class="cls-2"><path class="cls-3" d="M186.3,26.4c-4.1,0-7.5,3.2-7.5,8.4s3.5,8.4,7.5,8.4,7.6-3.3,7.6-8.4-3.5-8.4-7.6-8.4m7.5,21.5V43.5a10.53,10.53,0,0,1-8.9,4.9c-6.1,0-12.1-4.9-12.1-13.6s5.9-13.6,12.1-13.6a10.9,10.9,0,0,1,8.9,4.6v-14h6V48h-6Z" transform="translate(0 -0.1)"/></g><g class="cls-2"><path class="cls-3" d="M219.3,22v5h-6.8V48h-6V27h-3.3V22h3.3V20.1c0-5.7,2.9-8.6,8-8.6a16.44,16.44,0,0,1,4.9.7v5a10.3,10.3,0,0,0-3.5-.6c-2.3,0-3.5,1.2-3.5,4V22Z" transform="translate(0 -0.1)"/></g><g class="cls-2"><path class="cls-3" d="M253.5,21.2c5.7,0,9.2,3.6,9.2,10V47.9h-6V33.1c0-4.2-1.9-6.4-5.3-6.4s-5.6,2.3-5.6,6.5V48h-6V33c0-4.1-2-6.3-5.3-6.3s-5.6,2.5-5.6,6.5V47.9h-6V21.8h6v4c1.7-2.3,4-4.5,8-4.5a8.19,8.19,0,0,1,7.8,4.6,10.62,10.62,0,0,1,8.8-4.7" transform="translate(0 -0.1)"/></g><g class="cls-2"><path class="cls-3" d="M56.8,19.3a29.16,29.16,0,0,0-10-13.2c-6.8.2-32.9,3-46,34.7A29.16,29.16,0,0,0,10.8,54c6.7-.2,32.8-3,46-34.7" transform="translate(0 -0.1)"/></g><g class="cls-2"><path class="cls-3" d="M46.4,5.8A29.85,29.85,0,0,0,28.8.1,29.7,29.7,0,0,0,0,21.6C7.9,13.5,22.8,2.9,46.4,5.8" transform="translate(0 -0.1)"/></g><g class="cls-2"><path class="cls-3" d="M11.1,54.3A30,30,0,0,0,57.5,38.4c-7.8,8.2-22.8,18.7-46.4,15.9" transform="translate(0 -0.1)"/></g></g></g></svg>